<?xml version="1.0" encoding="UTF-8"?>
<svg width="136px" height="88px" viewBox="0 0 136 88" version="1.1" xmlns="http://www.w3.org/2000/svg" xmlns:xlink="http://www.w3.org/1999/xlink">
    <title>Group 39</title>
    <defs>
        <polygon id="path-1" points="1.00206186 0.293274194 133.931552 0.293274194 133.931552 85.8688597 1.00206186 85.8688597"></polygon>
        <polygon id="path-3" points="0 87 135.260258 87 135.260258 0.293274194 0 0.293274194"></polygon>
    </defs>
    <g id="Page-1" stroke="none" stroke-width="1" fill="none" fill-rule="evenodd">
        <g id="Group-39">
            <mask id="mask-2" fill="white">
                <use xlink:href="#path-1"></use>
            </mask>
            <g id="Clip-18"></g>
            <polygon id="Fill-17" fill="#000000" mask="url(#mask-2)" points="1.00206186 82.9390645 2.83082474 82.9390645 2.83082474 71.9896935 1.00206186 71.9896935"></polygon>
            <path d="M7.46466495,72.3462532 L7.46466495,73.7158016 C7.46466495,74.2406081 7.37698454,74.7134952 7.20023196,75.1358661 C7.02208763,75.5582371 6.72146907,75.9820113 6.29837629,76.4085919 L5.5468299,75.812221 C5.98801546,75.3365274 6.25523196,74.8748661 6.34291237,74.4286403 L5.39930412,74.4286403 L5.39930412,72.3462532 L7.46466495,72.3462532 Z" id="Fill-19" fill="#000000" mask="url(#mask-2)"></path>
            <path d="M17.056067,80.5286032 C17.596067,79.8550548 17.8674588,78.8882323 17.8674588,77.6281355 C17.8674588,76.3778613 17.596067,75.4180548 17.056067,74.7487161 C16.5132835,74.0793774 15.7561701,73.7454097 14.7833351,73.7454097 C13.8091082,73.7454097 13.0519948,74.076571 12.5106031,74.7417 C11.9706031,75.406829 11.6992113,76.3680387 11.6992113,77.6281355 C11.6992113,78.8882323 11.9706031,79.8550548 12.5106031,80.5286032 C13.0519948,81.2035548 13.8091082,81.540329 14.7833351,81.540329 C15.7561701,81.540329 16.5132835,81.2035548 17.056067,80.5286032 M12.1348299,82.410329 C11.3818918,81.9697161 10.8015309,81.3396677 10.3937474,80.5215871 C9.98457216,79.7035065 9.77998454,78.7394903 9.77998454,77.6281355 C9.77998454,76.5266032 9.98318041,75.5667968 10.3853969,74.7487161 C10.7890052,73.9306355 11.3665825,73.3033935 12.1195206,72.8669903 C12.8724588,72.4305871 13.7603969,72.2130871 14.7833351,72.2130871 C15.8062732,72.2130871 16.6942113,72.4305871 17.4457577,72.8669903 C18.1986959,73.3033935 18.7734897,73.9306355 19.1729227,74.7487161 C19.5723557,75.5667968 19.7699845,76.5266032 19.7699845,77.6281355 C19.7699845,78.7394903 19.5695722,79.7035065 19.1659639,80.5215871 C18.7623557,81.3396677 18.1861701,81.9697161 17.438799,82.410329 C16.6914278,82.8523452 15.8062732,83.0726516 14.7833351,83.0726516 C13.7701392,83.0726516 12.887768,82.8523452 12.1348299,82.410329" id="Fill-20" fill="#000000" mask="url(#mask-2)"></path>
            <path d="M29.2583969,78.3270823 L29.2583969,82.9394855 L27.4143247,82.9394855 L27.4143247,78.4154855 C27.4143247,77.821921 27.300201,77.3883242 27.0747371,77.1146952 C26.8478814,76.8410661 26.4999433,76.7049532 26.0267474,76.7049532 C25.4658711,76.7049532 25.0135515,76.8859694 24.6683969,77.2480016 C24.324634,77.6100339 24.1520567,78.0899371 24.1520567,78.6835016 L24.1520567,82.9394855 L22.3232938,82.9394855 L22.3232938,77.5539048 C22.3232938,76.759679 22.282933,76.05105 22.2049948,75.4266145 L23.9321598,75.4266145 L24.0643763,76.6614532 C24.319067,76.2040016 24.6670052,75.8517919 25.1054072,75.6048242 C25.5424175,75.3564532 26.0364897,75.2329694 26.5876237,75.2329694 C28.3676753,75.2329694 29.2583969,76.2643403 29.2583969,78.3270823" id="Fill-21" fill="#000000" mask="url(#mask-2)"></path>
            <path d="M34.3048918,76.8245081 L34.3048918,80.1866371 C34.3048918,81.0692661 34.714067,81.5112823 35.5310258,81.5112823 C35.7564897,81.5112823 36.0028299,81.4719919 36.2672629,81.3920081 L36.2672629,82.8639919 C35.9443763,82.9832661 35.5505103,83.0436048 35.0870567,83.0436048 C34.2408711,83.0436048 33.5923144,82.8050565 33.1399948,82.3293629 C32.6876753,81.8522661 32.4608196,81.1688952 32.4608196,80.2750403 L32.4608196,76.8245081 L31.0287062,76.8245081 L31.0287062,75.4254919 L32.4608196,75.4254919 L32.4608196,73.5956855 L34.3048918,72.97125 L34.3048918,75.4254919 L36.2825722,75.4254919 L36.2825722,76.8245081 L34.3048918,76.8245081 Z" id="Fill-22" fill="#000000" mask="url(#mask-2)"></path>
            <path d="M43.0984021,80.9602355 C43.4324227,80.5336548 43.6008247,79.9344774 43.6008247,79.1598968 C43.6008247,78.3670742 43.4324227,77.756671 43.0984021,77.3300903 C42.7643814,76.9035097 42.2870103,76.6902194 41.6676804,76.6902194 C41.0580928,76.6902194 40.5821134,76.911929 40.2439175,77.3525419 C39.9043299,77.7945581 39.7345361,78.4063645 39.7345361,79.1893645 C39.7345361,79.9639452 39.9043299,80.5589129 40.2439175,80.975671 C40.5821134,81.392429 41.062268,81.6001065 41.6815979,81.6001065 C42.2925773,81.6001065 42.7643814,81.3868161 43.0984021,80.9602355 L43.0984021,80.9602355 Z M45.4156701,75.4259129 L45.4156701,82.9387839 L43.6008247,82.9387839 L43.6008247,81.7334129 C43.3739691,82.150171 43.0496907,82.4757194 42.6265979,82.7086548 C42.2035052,82.9415903 41.7219588,83.0580581 41.180567,83.0580581 C40.5306186,83.0580581 39.9558247,82.8994935 39.4547938,82.5823645 C38.9523711,82.2652355 38.5640722,81.8133968 38.2885052,81.2282516 C38.0143299,80.6431065 37.8751546,79.9639452 37.8751546,79.1893645 C37.8751546,78.4161871 38.0157216,77.7300097 38.2968557,77.129429 C38.5765979,76.5288484 38.9676804,76.0629774 39.4701031,75.7304129 C39.971134,75.3992516 40.5417526,75.2322677 41.180567,75.2322677 C41.7219588,75.2322677 42.2035052,75.3487355 42.6265979,75.581671 C43.0496907,75.8146065 43.3739691,76.1401548 43.6008247,76.5569129 L43.6008247,75.4259129 L45.4156701,75.4259129 Z" id="Fill-23" fill="#000000" mask="url(#mask-2)"></path>
            <path d="M52.9113711,75.3665565 L52.8960619,77.0616532 C52.5815258,76.9339597 52.2572474,76.8694113 51.9232268,76.8694113 C51.2927629,76.8694113 50.814,77.0532339 50.4841546,77.4194758 C50.155701,77.787121 49.9886907,78.2726371 49.9886907,78.8774274 L49.9886907,82.9383629 L48.1599278,82.9383629 L48.1599278,77.5541855 C48.1599278,76.7599597 48.1209588,76.0513306 48.0416289,75.4254919 L49.7687938,75.4254919 L49.9163196,76.7501371 C50.1028144,76.264621 50.397866,75.8927661 50.8014742,75.6345726 C51.2036907,75.376379 51.6629691,75.2472823 52.1737423,75.2472823 C52.4590515,75.2472823 52.7053918,75.2865726 52.9113711,75.3665565" id="Fill-24" fill="#000000" mask="url(#mask-2)"></path>
            <path d="M54.6680412,82.9390645 L56.4968041,82.9390645 L56.4968041,75.4261935 L54.6680412,75.4261935 L54.6680412,82.9390645 Z M54.5497423,73.8489677 L56.6011856,73.8489677 L56.6011856,72.0191613 L54.5497423,72.0191613 L54.5497423,73.8489677 Z" id="Fill-25" fill="#000000" mask="url(#mask-2)"></path>
            <path d="M64.044,80.9828274 C64.3724536,80.5716823 64.5380722,79.9584726 64.5380722,79.1446016 C64.5380722,78.3419565 64.3710619,77.73015 64.0370412,77.307779 C63.7016289,76.8868113 63.2298247,76.6763274 62.6202371,76.6763274 C61.9995155,76.6763274 61.5221443,76.8868113 61.1881237,77.307779 C60.8541031,77.73015 60.6870928,78.3419565 60.6870928,79.1446016 C60.6870928,79.9584726 60.8513196,80.5716823 61.1811649,80.9828274 C61.5110103,81.3939726 61.9855979,81.6002468 62.6063196,81.6002468 C63.2353918,81.6002468 63.7141546,81.3939726 64.044,80.9828274 M60.6202887,82.5825048 C60.0454948,82.2653758 59.6029175,81.8107306 59.2925567,81.2199726 C58.9821959,80.6306177 58.8277113,79.9388274 58.8277113,79.1446016 C58.8277113,78.351779 58.9821959,77.6599887 59.2925567,77.0692306 C59.6029175,76.4798758 60.0454948,76.0266339 60.6202887,75.7081016 C61.1964742,75.3909726 61.8631237,75.2324081 62.6202371,75.2324081 C63.3676082,75.2324081 64.0259072,75.3909726 64.5965258,75.7081016 C65.1685361,76.0266339 65.6083299,76.4798758 65.9186907,77.0692306 C66.2276598,77.6599887 66.3835361,78.351779 66.3835361,79.1446016 C66.3835361,79.9388274 66.2276598,80.6306177 65.9186907,81.2199726 C65.6083299,81.8107306 65.1685361,82.2653758 64.5965258,82.5825048 C64.0259072,82.8996339 63.3676082,83.0581984 62.6202371,83.0581984 C61.8631237,83.0581984 61.1964742,82.8996339 60.6202887,82.5825048" id="Fill-26" fill="#000000" mask="url(#mask-2)"></path>
            <path d="M75.8264381,74.7861823 L75.8264381,75.4260532 L77.492366,75.4260532 L77.492366,76.8250694 L75.8264381,76.8250694 L75.8264381,82.9389242 L73.982366,82.9389242 L73.982366,76.8250694 L72.5641701,76.8250694 L72.5641701,75.4260532 L73.982366,75.4260532 L73.982366,74.697779 C73.982366,73.8039242 74.2050464,73.1177468 74.651799,72.6364403 C75.1013351,72.1551339 75.7415412,71.9151823 76.5779845,71.9151823 C77.0400464,71.9151823 77.4283454,71.9741177 77.7442732,72.0933919 L77.7442732,73.566779 C77.4687062,73.498021 77.227933,73.4629403 77.0205619,73.4629403 C76.2244794,73.4629403 75.8264381,73.9035532 75.8264381,74.7861823" id="Fill-27" fill="#000000" mask="url(#mask-2)"></path>
            <path d="M84.3983814,75.3665565 L84.3830722,77.0616532 C84.0685361,76.9339597 83.7442577,76.8694113 83.4102371,76.8694113 C82.7797732,76.8694113 82.3010103,77.0532339 81.9711649,77.4194758 C81.6427113,77.787121 81.475701,78.2726371 81.475701,78.8774274 L81.475701,82.9383629 L79.6469381,82.9383629 L79.6469381,77.5541855 C79.6469381,76.7599597 79.6079691,76.0513306 79.5286392,75.4254919 L81.2558041,75.4254919 L81.4033299,76.7501371 C81.5898247,76.264621 81.8848763,75.8927661 82.2884845,75.6345726 C82.690701,75.376379 83.1499794,75.2472823 83.6607526,75.2472823 C83.9460619,75.2472823 84.1924021,75.2865726 84.3983814,75.3665565" id="Fill-28" fill="#000000" mask="url(#mask-2)"></path>
            <path d="M90.8163093,80.9602355 C91.1503299,80.5336548 91.318732,79.9344774 91.318732,79.1598968 C91.318732,78.3670742 91.1503299,77.756671 90.8163093,77.3300903 C90.4822887,76.9035097 90.0049175,76.6902194 89.3855876,76.6902194 C88.776,76.6902194 88.3000206,76.911929 87.9618247,77.3525419 C87.6222371,77.7945581 87.4524433,78.4063645 87.4524433,79.1893645 C87.4524433,79.9639452 87.6222371,80.5589129 87.9618247,80.975671 C88.3000206,81.392429 88.7801753,81.6001065 89.3995052,81.6001065 C90.0104845,81.6001065 90.4822887,81.3868161 90.8163093,80.9602355 L90.8163093,80.9602355 Z M93.1335773,75.4259129 L93.1335773,82.9387839 L91.318732,82.9387839 L91.318732,81.7334129 C91.0918763,82.150171 90.7675979,82.4757194 90.3445052,82.7086548 C89.9214124,82.9415903 89.439866,83.0580581 88.8984742,83.0580581 C88.2485258,83.0580581 87.673732,82.8994935 87.172701,82.5823645 C86.6702784,82.2652355 86.2819794,81.8133968 86.0064124,81.2282516 C85.7322371,80.6431065 85.5930619,79.9639452 85.5930619,79.1893645 C85.5930619,78.4161871 85.7336289,77.7300097 86.0147629,77.129429 C86.2945052,76.5288484 86.6855876,76.0629774 87.1880103,75.7304129 C87.6890412,75.3992516 88.2596598,75.2322677 88.8984742,75.2322677 C89.439866,75.2322677 89.9214124,75.3487355 90.3445052,75.581671 C90.7675979,75.8146065 91.0918763,76.1401548 91.318732,76.5569129 L91.318732,75.4259129 L93.1335773,75.4259129 Z" id="Fill-29" fill="#000000" mask="url(#mask-2)"></path>
            <path d="M102.813356,78.3270823 L102.813356,82.9394855 L100.969284,82.9394855 L100.969284,78.4154855 C100.969284,77.821921 100.85516,77.3883242 100.629696,77.1146952 C100.40284,76.8410661 100.054902,76.7049532 99.5817062,76.7049532 C99.0208299,76.7049532 98.5685103,76.8859694 98.2233557,77.2480016 C97.8795928,77.6100339 97.7070155,78.0899371 97.7070155,78.6835016 L97.7070155,82.9394855 L95.8782526,82.9394855 L95.8782526,77.5539048 C95.8782526,76.759679 95.8378918,76.05105 95.7599536,75.4266145 L97.4871186,75.4266145 L97.6193351,76.6614532 C97.8740258,76.2040016 98.2219639,75.8517919 98.660366,75.6048242 C99.0973763,75.3564532 99.5914485,75.2329694 100.142582,75.2329694 C101.922634,75.2329694 102.813356,76.2643403 102.813356,78.3270823" id="Fill-30" fill="#000000" mask="url(#mask-2)"></path>
            <path d="M110.597149,82.7677306 C110.150397,82.9319081 109.675809,83.0231177 109.174778,83.0427629 L109.114933,83.5493274 C109.174778,83.5395048 109.256892,83.5338919 109.365448,83.5338919 C109.718954,83.5338919 110.007046,83.6251016 110.228335,83.8089242 C110.451015,83.9927468 110.560964,84.2481339 110.560964,84.5750855 C110.560964,84.9623758 110.393954,85.2752952 110.058541,85.5124403 C109.724521,85.7509887 109.256892,85.8688597 108.657046,85.8688597 C108.439933,85.8688597 108.20751,85.8478113 107.956995,85.8029081 C107.705088,85.7580048 107.486582,85.69065 107.300088,85.6022468 L107.47684,84.8136339 C107.899933,84.9525532 108.284057,85.0213113 108.62782,85.0213113 C109.119108,85.0213113 109.365448,84.8725694 109.365448,84.5750855 C109.365448,84.3575855 109.198438,84.2481339 108.864418,84.2481339 C108.725242,84.2481339 108.530397,84.2832145 108.272923,84.3519726 L107.99318,84.0699242 L108.111479,82.9992629 C107.166479,82.850521 106.428851,82.4379726 105.898593,81.7644242 C105.366943,81.0894726 105.101119,80.2306984 105.101119,79.1895048 C105.101119,78.4065048 105.26117,77.717521 105.581273,77.1225532 C105.899985,76.5275855 106.352304,76.0631177 106.938232,75.7305532 C107.522768,75.3993919 108.19916,75.2324081 108.967407,75.2324081 C109.499057,75.2324081 110.012613,75.3166016 110.509469,75.4863919 C111.006325,75.654779 111.401582,75.8877145 111.696634,76.1851984 L111.180294,77.4944081 C110.864366,77.2362145 110.530345,77.0397629 110.17684,76.9064565 C109.821943,76.77315 109.472613,76.7057952 109.128851,76.7057952 C108.460809,76.7057952 107.938902,76.916279 107.564521,77.3372468 C107.191531,77.7596177 107.005036,78.3672145 107.005036,79.1600371 C107.005036,79.9542629 107.188747,80.5590532 107.557562,80.9758113 C107.926376,81.3925694 108.451067,81.6002468 109.128851,81.6002468 C109.472613,81.6002468 109.821943,81.5314887 110.17684,81.3925694 C110.530345,81.2522468 110.864366,81.0543919 111.180294,80.7961984 L111.696634,82.1054081 C111.411325,82.3832468 111.045294,82.6035532 110.597149,82.7677306" id="Fill-31" fill="#000000" mask="url(#mask-2)"></path>
            <path d="M118.467789,80.9602355 C118.801809,80.5336548 118.970211,79.9344774 118.970211,79.1598968 C118.970211,78.3670742 118.801809,77.756671 118.467789,77.3300903 C118.133768,76.9035097 117.656397,76.6902194 117.037067,76.6902194 C116.427479,76.6902194 115.9515,76.911929 115.613304,77.3525419 C115.273716,77.7945581 115.103923,78.4063645 115.103923,79.1893645 C115.103923,79.9639452 115.273716,80.5589129 115.613304,80.975671 C115.9515,81.392429 116.431655,81.6001065 117.050985,81.6001065 C117.661964,81.6001065 118.133768,81.3868161 118.467789,80.9602355 L118.467789,80.9602355 Z M120.785057,75.4259129 L120.785057,82.9387839 L118.970211,82.9387839 L118.970211,81.7334129 C118.743356,82.150171 118.419077,82.4757194 117.995985,82.7086548 C117.572892,82.9415903 117.091345,83.0580581 116.549954,83.0580581 C115.900005,83.0580581 115.325211,82.8994935 114.82418,82.5823645 C114.321758,82.2652355 113.933459,81.8133968 113.657892,81.2282516 C113.383716,80.6431065 113.244541,79.9639452 113.244541,79.1893645 C113.244541,78.4161871 113.385108,77.7300097 113.666242,77.129429 C113.945985,76.5288484 114.337067,76.0629774 114.83949,75.7304129 C115.340521,75.3992516 115.911139,75.2322677 116.549954,75.2322677 C117.091345,75.2322677 117.572892,75.3487355 117.995985,75.581671 C118.419077,75.8146065 118.743356,76.1401548 118.970211,76.5569129 L118.970211,75.4259129 L120.785057,75.4259129 Z" id="Fill-32" fill="#000000" mask="url(#mask-2)"></path>
            <path d="M123.529175,82.9390645 L125.357938,82.9390645 L125.357938,75.4261935 L123.529175,75.4261935 L123.529175,82.9390645 Z M123.410876,73.8489677 L125.46232,73.8489677 L125.46232,72.0191613 L123.410876,72.0191613 L123.410876,73.8489677 Z" id="Fill-33" fill="#000000" mask="url(#mask-2)"></path>
            <path d="M127.631088,82.105829 L128.147428,80.7966194 C128.94351,81.3915871 129.855108,81.689071 130.876655,81.689071 C131.319232,81.689071 131.661603,81.6147 131.902376,81.4659581 C132.143149,81.3172161 132.264232,81.1095387 132.264232,80.8415226 C132.264232,80.6142 132.180727,80.4317806 132.012325,80.2984742 C131.845314,80.1651677 131.560005,80.0487 131.157789,79.949071 L129.919129,79.6656194 C128.560778,79.3681355 127.882995,78.669329 127.882995,77.5692 C127.882995,77.1117484 128.009644,76.7076194 128.265727,76.3554097 C128.521809,76.0032 128.87949,75.729571 129.341552,75.5303129 C129.805005,75.3310548 130.34083,75.232829 130.951809,75.232829 C131.483459,75.232829 131.994232,75.3142161 132.485521,75.4783935 C132.978201,75.642571 133.409644,75.8783129 133.784026,76.1842161 L133.237067,77.4499258 C132.489696,76.8942484 131.72284,76.6164097 130.9365,76.6164097 C130.513407,76.6164097 130.183562,76.6963935 129.946964,76.8535548 C129.711758,77.0135226 129.593459,77.2310226 129.593459,77.5088613 C129.593459,77.7263613 129.664438,77.9003613 129.806397,78.0294581 C129.949747,78.1585548 130.193304,78.2680065 130.538459,78.3564097 L131.806345,78.6398613 C132.543974,78.8082484 133.082582,79.0678452 133.42217,79.4200548 C133.761758,79.7722645 133.931552,80.2311194 133.931552,80.7966194 C133.931552,81.4912161 133.655985,82.0412806 133.106242,82.4482161 C132.553716,82.8551516 131.80217,83.0586194 130.84882,83.0586194 C129.500211,83.0586194 128.42717,82.7414903 127.631088,82.105829" id="Fill-34" fill="#000000" mask="url(#mask-2)"></path>
            <path d="M76.1784124,2.95715806 C64.7493402,2.95715806 55.4844433,12.2984323 55.4844433,23.8231258 C55.4844433,35.3464161 64.7493402,44.6876903 76.1784124,44.6876903 C87.6074845,44.6876903 96.8737732,35.3464161 96.8737732,23.8231258 C96.8737732,12.2984323 87.6074845,2.95715806 76.1784124,2.95715806" id="Fill-35" fill="#000000" mask="url(#mask-2)"></path>
            <path d="M76.4134794,38.8497097 C68.3120876,38.8497097 61.509201,31.9907419 61.509201,23.8225645 C61.509201,15.6543871 68.0768814,9.03256452 76.1768814,9.03256452 C84.2796649,9.03256452 90.8473454,15.6543871 90.8473454,23.8225645 C90.8473454,31.9907419 84.5134794,38.8497097 76.4134794,38.8497097" id="Fill-36" fill="#81CA30" mask="url(#mask-2)"></path>
            <path d="M48.0498402,24.2144855 C47.9635515,32.3826629 41.3276753,38.9343242 33.2276753,38.8487274 C25.1235,38.7631306 18.6254072,32.0711468 18.7130876,23.9029694 C18.7242216,22.8126629 18.8522629,21.7518242 19.0846856,20.7302758 L12.9581907,20.6657274 C12.7911804,21.6999048 12.6993247,22.7593403 12.6881907,23.8398242 C12.5671082,35.3617113 21.7345825,44.8012113 33.1636546,44.9232919 C44.5927268,45.0439694 53.9536546,35.800921 54.0747371,24.2790339 C54.0858711,23.19855 54.0135,22.1377113 53.8687577,21.0993242 L47.7422629,21.0347758 C47.955201,22.0605339 48.0609742,23.124179 48.0498402,24.2144855" id="Fill-37" fill="#000000" mask="url(#mask-2)"></path>
            <path d="M119.427402,0.293975806 C107.99833,0.173298387 98.6374021,9.41494355 98.5177113,20.9382339 C98.5149278,21.1459113 98.5162632,21.3535887 98.5204948,21.5598629 L98.5162632,21.5598629 L98.5162632,44.0970726 L104.541216,44.0970726 L104.541216,27.6358306 L115.749,27.6358306 L115.749,21.5598629 L104.546784,21.5598629 C104.542608,21.3746371 104.539825,21.1894113 104.542608,21.0027823 C104.626113,12.8346048 111.263381,6.28294355 119.363381,6.36854032 C120.444773,6.37976613 121.49833,6.51026613 122.512918,6.74460484 L122.576938,0.567604839 C121.549825,0.399217742 120.499052,0.305201613 119.427402,0.293975806" id="Fill-38" fill="#000000" mask="url(#mask-2)"></path>
            <path d="M19.2768866,67.0725097 C18.5350825,66.3231871 18.1634845,65.2258645 18.1634845,63.7777355 L18.1634845,57.4688323 L20.0367835,57.4688323 L20.0367835,63.8815742 C20.0367835,64.793671 20.2483299,65.4854613 20.6714227,65.9569452 C21.0945155,66.428429 21.7249794,66.6627677 22.5600309,66.6627677 C23.3755979,66.6627677 23.9991031,66.4256226 24.4263711,65.949929 C24.8550309,65.4728323 25.0679691,64.7838484 25.0679691,63.8815742 L25.0679691,57.4688323 L26.9426598,57.4688323 L26.9426598,63.7777355 C26.9426598,65.2160419 26.5682784,66.3119613 25.8209072,67.0654935 C25.0735361,67.8190258 23.9865773,68.1950903 22.5600309,68.1950903 C21.114,68.1950903 20.0200825,67.8218323 19.2768866,67.0725097" id="Fill-1" fill="#000000" mask="url(#mask-2)"></path>
            <path d="M36.6820052,63.4500823 L36.6820052,68.0624855 L34.837933,68.0624855 L34.837933,63.5384855 C34.837933,62.944921 34.7238093,62.5113242 34.4983454,62.2376952 C34.2714897,61.9640661 33.9235515,61.8279532 33.4503557,61.8279532 C32.8894794,61.8279532 32.4371598,62.0089694 32.0920052,62.3710016 C31.7482423,62.7330339 31.5756649,63.2129371 31.5756649,63.8065016 L31.5756649,68.0624855 L29.7469021,68.0624855 L29.7469021,62.6769048 C29.7469021,61.882679 29.7065412,61.17405 29.6286031,60.5496145 L31.355768,60.5496145 L31.4879845,61.7844532 C31.7426753,61.3270016 32.0906134,60.9747919 32.5290155,60.7278242 C32.9660258,60.4794532 33.4600979,60.3559694 34.011232,60.3559694 C35.7912835,60.3559694 36.6820052,61.3873403 36.6820052,63.4500823" id="Fill-3" fill="#000000" mask="url(#mask-2)"></path>
            <mask id="mask-4" fill="white">
                <use xlink:href="#path-3"></use>
            </mask>
            <g id="Clip-6"></g>
            <path d="M39.3810309,68.0620645 L41.2097938,68.0620645 L41.2097938,60.5491935 L39.3810309,60.5491935 L39.3810309,68.0620645 Z M39.262732,58.9719677 L41.3141753,58.9719677 L41.3141753,57.1421613 L39.262732,57.1421613 L39.262732,58.9719677 Z" id="Fill-5" fill="#000000" mask="url(#mask-4)"></path>
            <polygon id="Fill-7" fill="#000000" mask="url(#mask-4)" points="49.1927474 60.5640677 51.0229021 60.5640677 47.7620258 68.0615032 46.1531598 68.0615032 42.9368196 60.5640677 44.8699639 60.5640677 47.0104794 65.9496484"></polygon>
            <path d="M54.6307423,62.1331548 C54.3203814,62.4250258 54.1213608,62.8502032 54.0322887,63.4058806 L57.5005361,63.4058806 C57.4420825,62.8403806 57.2708969,62.4138 56.9911546,62.1261387 C56.7114124,61.8384774 56.3258969,61.6953484 55.8332165,61.6953484 C55.3419278,61.6953484 54.9411031,61.8412839 54.6307423,62.1331548 L54.6307423,62.1331548 Z M59.1094021,64.402171 L53.9738351,64.402171 C54.0141959,65.2048161 54.2118247,65.7983806 54.5708969,66.1800581 C54.9313608,66.5617355 55.4644021,66.7525742 56.1714124,66.7525742 C56.9883711,66.7525742 57.7454845,66.4845581 58.4441443,65.949929 L58.9757938,67.2282677 C58.6222887,67.515929 58.1866701,67.7474613 57.6703299,67.9214613 C57.1525979,68.0940581 56.6306907,68.1810581 56.0990412,68.1810581 C54.879866,68.1810581 53.9195567,67.8330581 53.2208969,67.1398645 C52.5222371,66.4452677 52.1729072,65.4938806 52.1729072,64.2828968 C52.1729072,63.5195419 52.326,62.8403806 52.6307938,62.2454129 C52.9355876,61.6504452 53.3642474,61.1859774 53.9139897,60.8534129 C54.4665155,60.5222516 55.0900206,60.3552677 55.7886804,60.3552677 C56.8116186,60.3552677 57.6202268,60.6906387 58.2158969,61.3599774 C58.811567,62.0293161 59.1094021,62.9498323 59.1094021,64.1201226 L59.1094021,64.402171 Z" id="Fill-8" fill="#000000" mask="url(#mask-4)"></path>
            <path d="M66.1615515,60.4894161 L66.1462423,62.1845129 C65.8317062,62.0568194 65.5074278,61.992271 65.1734072,61.992271 C64.5429433,61.992271 64.0641804,62.1760935 63.7343351,62.5423355 C63.4058814,62.9099806 63.2388711,63.3954968 63.2388711,64.0002871 L63.2388711,68.0612226 L61.4101082,68.0612226 L61.4101082,62.6770452 C61.4101082,61.8828194 61.3711392,61.1741903 61.2918093,60.5483516 L63.0189742,60.5483516 L63.1665,61.8729968 C63.3529948,61.3874806 63.6480464,61.0156258 64.0516546,60.7574323 C64.4538711,60.4992387 64.9131495,60.3701419 65.4239227,60.3701419 C65.709232,60.3701419 65.9555722,60.4094323 66.1615515,60.4894161" id="Fill-9" fill="#000000" mask="url(#mask-4)"></path>
            <path d="M67.3725155,67.228829 L67.8888557,65.9196194 C68.6849381,66.5145871 69.5965361,66.812071 70.6180825,66.812071 C71.0606598,66.812071 71.4030309,66.7377 71.6438041,66.5889581 C71.8845773,66.4402161 72.0056598,66.2325387 72.0056598,65.9645226 C72.0056598,65.7372 71.9221546,65.5547806 71.7537526,65.4214742 C71.5867423,65.2881677 71.301433,65.1717 70.8992165,65.072071 L69.6605567,64.7886194 C68.3022062,64.4911355 67.6244227,63.792329 67.6244227,62.6922 C67.6244227,62.2347484 67.7510722,61.8306194 68.0071546,61.4784097 C68.2632371,61.1262 68.6209175,60.852571 69.0829794,60.6533129 C69.546433,60.4540548 70.0822577,60.355829 70.6932371,60.355829 C71.2248866,60.355829 71.7356598,60.4372161 72.2269485,60.6013935 C72.7196289,60.765571 73.1510722,61.0013129 73.5254536,61.3072161 L72.9784948,62.5729258 C72.2311237,62.0172484 71.464268,61.7394097 70.6779278,61.7394097 C70.2548351,61.7394097 69.9249897,61.8193935 69.6883918,61.9765548 C69.4531856,62.1365226 69.3348866,62.3540226 69.3348866,62.6318613 C69.3348866,62.8493613 69.405866,63.0233613 69.5478247,63.1524581 C69.6911753,63.2815548 69.934732,63.3910065 70.2798866,63.4794097 L71.5477732,63.7628613 C72.2854021,63.9312484 72.8240103,64.1908452 73.1635979,64.5430548 C73.5031856,64.8952645 73.6729794,65.3541194 73.6729794,65.9196194 C73.6729794,66.6142161 73.3974124,67.1642806 72.8476701,67.5712161 C72.2951443,67.9781516 71.5435979,68.1816194 70.5902474,68.1816194 C69.2416392,68.1816194 68.1685979,67.8644903 67.3725155,67.228829" id="Fill-10" fill="#000000" mask="url(#mask-4)"></path>
            <path d="M75.9896907,68.0620645 L77.8184536,68.0620645 L77.8184536,60.5491935 L75.9896907,60.5491935 L75.9896907,68.0620645 Z M75.8713918,58.9719677 L77.9228351,58.9719677 L77.9228351,57.1421613 L75.8713918,57.1421613 L75.8713918,58.9719677 Z" id="Fill-11" fill="#000000" mask="url(#mask-4)"></path>
            <path d="M82.9238196,61.9475081 L82.9238196,65.3096371 C82.9238196,66.1922661 83.3329948,66.6342823 84.1499536,66.6342823 C84.3754175,66.6342823 84.6217577,66.5949919 84.8861907,66.5150081 L84.8861907,67.9869919 C84.5633041,68.1062661 84.1694381,68.1666048 83.7059845,68.1666048 C82.859799,68.1666048 82.2112423,67.9280565 81.7589227,67.4523629 C81.3066031,66.9752661 81.0797474,66.2918952 81.0797474,65.3980403 L81.0797474,61.9475081 L79.647634,61.9475081 L79.647634,60.5484919 L81.0797474,60.5484919 L81.0797474,58.7186855 L82.9238196,58.09425 L82.9238196,60.5484919 L84.9015,60.5484919 L84.9015,61.9475081 L82.9238196,61.9475081 Z" id="Fill-12" fill="#000000" mask="url(#mask-4)"></path>
            <path d="M90.6994021,59.5822306 L89.5052784,59.5822306 L90.9805361,56.5175855 L92.8691443,56.5175855 L90.6994021,59.5822306 Z M88.9513608,62.1332952 C88.641,62.4251661 88.4419794,62.8503435 88.3529072,63.406021 L91.8211546,63.406021 C91.762701,62.840521 91.5929072,62.4139403 91.3117732,62.1248758 C91.0320309,61.8386177 90.6465155,61.6940855 90.1538351,61.6940855 C89.6625464,61.6940855 89.2617216,61.8414242 88.9513608,62.1332952 L88.9513608,62.1332952 Z M93.4300206,64.4023113 L88.2944536,64.4023113 C88.3348144,65.2049565 88.5324433,65.798521 88.8915155,66.1801984 C89.2519794,66.5618758 89.7850206,66.7527145 90.4934227,66.7527145 C91.3089897,66.7527145 92.0661031,66.4846984 92.7647629,65.9500694 L93.2964124,67.2284081 C92.9429072,67.5160694 92.5072887,67.7476016 91.9909485,67.9201984 C91.4746082,68.0941984 90.9513093,68.1811984 90.4196598,68.1811984 C89.2004845,68.1811984 88.2401753,67.8331984 87.5415155,67.1400048 C86.8428557,66.4454081 86.4949175,65.4926177 86.4949175,64.2830371 C86.4949175,63.5196823 86.6466186,62.840521 86.9528041,62.24415 C87.2562062,61.6505855 87.684866,61.1861177 88.2346082,60.8535532 C88.787134,60.5209887 89.4106392,60.3554081 90.109299,60.3554081 C91.1336289,60.3554081 91.9422371,60.690779 92.5365155,61.3601177 C93.1321856,62.0294565 93.4300206,62.9485694 93.4300206,64.1188597 L93.4300206,64.4023113 Z" id="Fill-13" fill="#000000" mask="url(#mask-4)"></path>
            <path d="M105.315448,66.0832355 C105.655036,65.6566548 105.82483,65.0518645 105.82483,64.2688645 C105.82483,63.4844613 105.656428,62.879671 105.322407,62.4530903 C104.988387,62.0265097 104.516582,61.8132194 103.905603,61.8132194 C103.286273,61.8132194 102.806119,62.0237032 102.467923,62.4460742 C102.128335,62.8670419 101.958541,63.4648161 101.958541,64.2393968 C101.958541,65.0223968 102.128335,65.6328 102.467923,66.0678 C102.806119,66.5056065 103.282098,66.7231065 103.891686,66.7231065 C104.501273,66.7231065 104.975861,66.5098161 105.315448,66.0832355 L105.315448,66.0832355 Z M107.639675,57.1124129 L107.639675,68.0617839 L105.82483,68.0617839 L105.82483,66.8564129 C105.597974,67.273171 105.273696,67.5987194 104.850603,67.8316548 C104.42751,68.0645903 103.945964,68.1810581 103.404572,68.1810581 C102.765758,68.1810581 102.195139,68.0168806 101.692716,67.689929 C101.191686,67.3629774 100.800603,66.8999129 100.520861,66.2993323 C100.239727,65.6987516 100.09916,65.0125742 100.09916,64.2393968 C100.09916,63.4648161 100.238335,62.7856548 100.51251,62.2005097 C100.788077,61.6153645 101.176376,61.1621226 101.678799,60.8393806 C102.17983,60.5166387 102.754624,60.3552677 103.404572,60.3552677 C103.936222,60.3552677 104.410809,60.4675258 104.828335,60.6906387 C105.245861,60.9137516 105.568747,61.2294774 105.795603,61.6350097 L105.795603,57.1124129 L107.639675,57.1124129 Z" id="Fill-14" fill="#000000" mask="url(#mask-4)"></path>
            <path d="M112.427861,62.1331548 C112.1175,62.4250258 111.918479,62.8502032 111.829407,63.4058806 L115.297655,63.4058806 C115.239201,62.8403806 115.068015,62.4138 114.788273,62.1261387 C114.508531,61.8384774 114.123015,61.6953484 113.630335,61.6953484 C113.139046,61.6953484 112.738222,61.8412839 112.427861,62.1331548 L112.427861,62.1331548 Z M116.906521,64.402171 L111.770954,64.402171 C111.811314,65.2048161 112.008943,65.7983806 112.368015,66.1800581 C112.728479,66.5617355 113.261521,66.7525742 113.968531,66.7525742 C114.78549,66.7525742 115.542603,66.4845581 116.241263,65.949929 L116.772912,67.2282677 C116.419407,67.515929 115.983789,67.7474613 115.467448,67.9214613 C114.949716,68.0940581 114.427809,68.1810581 113.89616,68.1810581 C112.676985,68.1810581 111.716675,67.8330581 111.018015,67.1398645 C110.319356,66.4452677 109.970026,65.4938806 109.970026,64.2828968 C109.970026,63.5195419 110.123119,62.8403806 110.427912,62.2454129 C110.732706,61.6504452 111.161366,61.1859774 111.711108,60.8534129 C112.263634,60.5222516 112.887139,60.3552677 113.585799,60.3552677 C114.608737,60.3552677 115.417345,60.6906387 116.013015,61.3599774 C116.608686,62.0293161 116.906521,62.9498323 116.906521,64.1201226 L116.906521,64.402171 Z" id="Fill-15" fill="#000000" mask="url(#mask-4)"></path>
        </g>
    </g>
</svg>